<svg xmlns="http://www.w3.org/2000/svg" xmlns:xlink="http://www.w3.org/1999/xlink" version="1.1" width="1000" height="1000" viewBox="0 0 1000 1000" xml:space="preserve">
<desc>Created with Fabric.js 3.5.0</desc>
<defs>
</defs>
<rect x="0" y="0" width="100%" height="100%" fill="#ffffff"/>
<g transform="matrix(1 0 0 1 500 500)" id="353115">
<g style="" vector-effect="non-scaling-stroke">
		<g transform="matrix(18.1818 0 0 18.1818 -0.0004 127.2725)" id="Rectangle">
<polygon style="stroke: none; stroke-width: 1; stroke-dasharray: none; stroke-linecap: butt; stroke-dashoffset: 0; stroke-linejoin: miter; stroke-miterlimit: 4; is-custom-font: none; font-file-url: none; fill: rgb(68,127,180); fill-rule: evenodd; opacity: 1;" points="-22,-12.5 0,0 22,-12.5 15.8552,12.5 -15.9158,12.5 "/>
</g>
		<g transform="matrix(18.1818 0 0 18.1818 -0.0003 72.727)" id="Triangle">
<polygon style="stroke: none; stroke-width: 1; stroke-dasharray: none; stroke-linecap: butt; stroke-dashoffset: 0; stroke-linejoin: miter; stroke-miterlimit: 4; is-custom-font: none; font-file-url: none; fill: rgb(81,179,172); fill-opacity: 0.26; fill-rule: evenodd; opacity: 1;" points="0,-15.5 15,15.5 -15,15.5 "/>
</g>
		<g transform="matrix(18.1818 0 0 18.1818 -418.1819 -190.9091)" id="Oval">
<circle style="stroke: none; stroke-width: 1; stroke-dasharray: none; stroke-linecap: butt; stroke-dashoffset: 0; stroke-linejoin: miter; stroke-miterlimit: 4; is-custom-font: none; font-file-url: none; fill: rgb(66,119,167); fill-rule: evenodd; opacity: 1;" cx="0" cy="0" r="2"/>
</g>
		<g transform="matrix(18.1818 0 0 18.1818 0 -318.1819)" id="Oval">
<circle style="stroke: none; stroke-width: 1; stroke-dasharray: none; stroke-linecap: butt; stroke-dashoffset: 0; stroke-linejoin: miter; stroke-miterlimit: 4; is-custom-font: none; font-file-url: none; fill: rgb(66,119,167); fill-rule: evenodd; opacity: 1;" cx="0" cy="0" r="2"/>
</g>
		<g transform="matrix(18.1818 0 0 18.1818 418.1818 -190.9091)" id="Oval">
<circle style="stroke: none; stroke-width: 1; stroke-dasharray: none; stroke-linecap: butt; stroke-dashoffset: 0; stroke-linejoin: miter; stroke-miterlimit: 4; is-custom-font: none; font-file-url: none; fill: rgb(66,119,167); fill-rule: evenodd; opacity: 1;" cx="0" cy="0" r="2"/>
</g>
</g>
</g>
</svg>